# xmcd CD database file
#
# Track frame offsets:
#	150
#	71778
#	119052
#	158050
#	200216
#
# Disc length: 3134 seconds
#
# Revision: 0
# Processed by: cddbd v1.5.2PL0 Copyright (c) Steve Scherf et al.
# Submitted via: CDex 1.51
#
DISCID=4d0c3c05
DTITLE=Pat Metheny - Orchestrion
DYEAR=2010
DGENRE=Jazz
TTITLE0=Orchestrion
TTITLE1=Entry Point
TTITLE2=Expansion
TTITLE3=Soul Search
TTITLE4=Spirit Of The Air
EXTD=YEAR: 2010
EXTT0=
EXTT1=
EXTT2=
EXTT3=
EXTT4=
PLAYORDER=
